<svg width="40" height="40" viewBox="0 0 40 40" fill="none" xmlns="http://www.w3.org/2000/svg">
<rect width="40" height="40" rx="4" fill="#F3F3F3"/>
<g filter="url(#filter0_d_114_341)">
<path fill-rule="evenodd" clip-rule="evenodd" d="M10.7 14C10.7 13.4696 10.9212 12.9609 11.3151 12.5858C11.7089 12.2107 12.243 12 12.8 12C13.357 12 13.8911 12.2107 14.2849 12.5858C14.6788 12.9609 14.9 13.4696 14.9 14C14.9 14.5304 14.6788 15.0391 14.2849 15.4142C13.8911 15.7893 13.357 16 12.8 16C12.243 16 11.7089 15.7893 11.3151 15.4142C10.9212 15.0391 10.7 14.5304 10.7 14ZM10.4 19.6321C10.025 20.0321 9.8 20.5643 9.8 21.1429C9.8 21.7214 10.025 22.2536 10.4 22.6536V19.6321ZM15.815 17.8714C14.7012 18.8107 14 20.1857 14 21.7143C14 22.9393 14.45 24.0643 15.2 24.9464V25.7143C15.2 26.3464 14.6638 26.8571 14 26.8571H11.6C10.9363 26.8571 10.4 26.3464 10.4 25.7143V24.7571C8.9825 24.1143 8 22.7393 8 21.1429C8 18.9321 9.87875 17.1429 12.2 17.1429H13.4C14.3 17.1429 15.1325 17.4107 15.815 17.8679V17.8714ZM24.8 25.7143V24.9464C25.55 24.0643 26 22.9393 26 21.7143C26 20.1857 25.2988 18.8107 24.185 17.8679C24.8675 17.4107 25.7 17.1429 26.6 17.1429H27.8C30.1213 17.1429 32 18.9321 32 21.1429C32 22.7393 31.0175 24.1143 29.6 24.7571V25.7143C29.6 26.3464 29.0638 26.8571 28.4 26.8571H26C25.3362 26.8571 24.8 26.3464 24.8 25.7143ZM25.1 14C25.1 13.4696 25.3213 12.9609 25.7151 12.5858C26.1089 12.2107 26.643 12 27.2 12C27.757 12 28.2911 12.2107 28.6849 12.5858C29.0788 12.9609 29.3 13.4696 29.3 14C29.3 14.5304 29.0788 15.0391 28.6849 15.4142C28.2911 15.7893 27.757 16 27.2 16C26.643 16 26.1089 15.7893 25.7151 15.4142C25.3213 15.0391 25.1 14.5304 25.1 14ZM29.6 22.6571C29.975 22.2536 30.2 21.725 30.2 21.1464C30.2 20.5679 29.975 20.0357 29.6 19.6357V22.6571Z" fill="#3D4CF5"/>
<path fill-rule="evenodd" clip-rule="evenodd" d="M24.8 21.7143C24.8 23.3107 23.8175 24.6857 22.4 25.3286V26.8571C22.4 27.4893 21.8638 28 21.2 28H18.8C18.1363 28 17.6 27.4893 17.6 26.8571V25.3286C16.1825 24.6857 15.2 23.3107 15.2 21.7143C15.2 19.5036 17.0788 17.7143 19.4 17.7143H20.6C22.9213 17.7143 24.8 19.5036 24.8 21.7143ZM17.6 23.225C17.225 22.8214 17 22.2929 17 21.7143V21.7107C17 21.1321 17.225 20.6036 17.6 20.2V23.225ZM22.4 23.2286V20.2071C22.775 20.6071 23 21.1393 23 21.7179C23 22.2964 22.775 22.825 22.4 23.2286Z" fill="#3D4CF5"/>
<path d="M20 12C20.6365 12 21.247 12.2408 21.6971 12.6695C22.1471 13.0981 22.4 13.6795 22.4 14.2857C22.4 14.8919 22.1471 15.4733 21.6971 15.902C21.247 16.3306 20.6365 16.5714 20 16.5714C19.3635 16.5714 18.753 16.3306 18.3029 15.902C17.8529 15.4733 17.6 14.8919 17.6 14.2857C17.6 13.6795 17.8529 13.0981 18.3029 12.6695C18.753 12.2408 19.3635 12 20 12Z" fill="#3D4CF5"/>
</g>
<defs>
<filter id="filter0_d_114_341" x="4" y="10" width="32" height="24" filterUnits="userSpaceOnUse" color-interpolation-filters="sRGB">
<feFlood flood-opacity="0" result="BackgroundImageFix"/>
<feColorMatrix in="SourceAlpha" type="matrix" values="0 0 0 0 0 0 0 0 0 0 0 0 0 0 0 0 0 0 127 0" result="hardAlpha"/>
<feOffset dy="2"/>
<feGaussianBlur stdDeviation="2"/>
<feComposite in2="hardAlpha" operator="out"/>
<feColorMatrix type="matrix" values="0 0 0 0 0 0 0 0 0 0 0 0 0 0 0 0 0 0 0.25 0"/>
<feBlend mode="normal" in2="BackgroundImageFix" result="effect1_dropShadow_114_341"/>
<feBlend mode="normal" in="SourceGraphic" in2="effect1_dropShadow_114_341" result="shape"/>
</filter>
</defs>
</svg>
