<svg width="40" height="40" viewBox="0 0 40 40" fill="none" xmlns="http://www.w3.org/2000/svg">
<rect width="40" height="40" rx="4" fill="#333333"/>
<g filter="url(#filter0_d_114_392)">
<path d="M16.625 11H23.375C23.5813 11 23.75 11.1687 23.75 11.375V13.25H16.25V11.375C16.25 11.1687 16.4187 11 16.625 11ZM14 11.375V13.25H11C9.34531 13.25 8 14.5953 8 16.25V20.75H17H23H32V16.25C32 14.5953 30.6547 13.25 29 13.25H26V11.375C26 9.92656 24.8234 8.75 23.375 8.75H16.625C15.1766 8.75 14 9.92656 14 11.375ZM32 22.25H23V23.75C23 24.5797 22.3297 25.25 21.5 25.25H18.5C17.6703 25.25 17 24.5797 17 23.75V22.25H8V28.25C8 29.9047 9.34531 31.25 11 31.25H29C30.6547 31.25 32 29.9047 32 28.25V22.25Z" fill="white"/>
</g>
<defs>
<filter id="filter0_d_114_392" x="4" y="6.75" width="32" height="30.5" filterUnits="userSpaceOnUse" color-interpolation-filters="sRGB">
<feFlood flood-opacity="0" result="BackgroundImageFix"/>
<feColorMatrix in="SourceAlpha" type="matrix" values="0 0 0 0 0 0 0 0 0 0 0 0 0 0 0 0 0 0 127 0" result="hardAlpha"/>
<feOffset dy="2"/>
<feGaussianBlur stdDeviation="2"/>
<feComposite in2="hardAlpha" operator="out"/>
<feColorMatrix type="matrix" values="0 0 0 0 0 0 0 0 0 0 0 0 0 0 0 0 0 0 0.25 0"/>
<feBlend mode="normal" in2="BackgroundImageFix" result="effect1_dropShadow_114_392"/>
<feBlend mode="normal" in="SourceGraphic" in2="effect1_dropShadow_114_392" result="shape"/>
</filter>
</defs>
</svg>
