<svg width="40" height="40" viewBox="0 0 40 40" fill="none" xmlns="http://www.w3.org/2000/svg">
<rect width="40" height="40" rx="4" fill="#F3F3F3"/>
<g filter="url(#filter0_d_77_1412)">
<path d="M20 13C20 12.4477 20.4494 11.9936 20.9974 12.0624C22.2262 12.2168 23.4072 12.6551 24.4446 13.3482C25.7602 14.2273 26.7855 15.4767 27.391 16.9385C27.9965 18.4003 28.155 20.0089 27.8463 21.5607C27.5376 23.1126 26.7757 24.538 25.6569 25.6569C24.538 26.7757 23.1126 27.5376 21.5607 27.8463C20.0089 28.155 18.4003 27.9965 16.9385 27.391C15.4767 26.7855 14.2273 25.7602 13.3482 24.4446C12.6551 23.4072 12.2168 22.2262 12.0624 20.9974C11.9936 20.4494 12.4477 20 13 20V20C13.5523 20 13.9915 20.4508 14.0831 20.9954C14.2232 21.8279 14.538 22.6253 15.0112 23.3334C15.6705 24.3201 16.6075 25.0892 17.7039 25.5433C18.8003 25.9974 20.0067 26.1162 21.1705 25.8847C22.3344 25.6532 23.4035 25.0818 24.2426 24.2426C25.0818 23.4035 25.6532 22.3344 25.8847 21.1705C26.1162 20.0067 25.9974 18.8003 25.5433 17.7039C25.0892 16.6075 24.3201 15.6705 23.3334 15.0112C22.6253 14.538 21.8279 14.2232 20.9954 14.0831C20.4508 13.9915 20 13.5523 20 13V13Z" fill="#3D4CF5"/>
</g>
<defs>
<filter id="filter0_d_77_1412" x="8.05554" y="10.0555" width="23.9445" height="23.9445" filterUnits="userSpaceOnUse" color-interpolation-filters="sRGB">
<feFlood flood-opacity="0" result="BackgroundImageFix"/>
<feColorMatrix in="SourceAlpha" type="matrix" values="0 0 0 0 0 0 0 0 0 0 0 0 0 0 0 0 0 0 127 0" result="hardAlpha"/>
<feOffset dy="2"/>
<feGaussianBlur stdDeviation="2"/>
<feComposite in2="hardAlpha" operator="out"/>
<feColorMatrix type="matrix" values="0 0 0 0 0 0 0 0 0 0 0 0 0 0 0 0 0 0 0.25 0"/>
<feBlend mode="normal" in2="BackgroundImageFix" result="effect1_dropShadow_77_1412"/>
<feBlend mode="normal" in="SourceGraphic" in2="effect1_dropShadow_77_1412" result="shape"/>
</filter>
</defs>
</svg>
