<svg width="40" height="40" viewBox="0 0 40 40" fill="none" xmlns="http://www.w3.org/2000/svg">
<g clip-path="url(#clip0_103_868)">
<rect width="40" height="40" rx="4" fill="#F3F3F3"/>
<g filter="url(#filter0_d_103_868)">
<path d="M2 4C2 2.89543 2.89543 2 4 2H36C37.1046 2 38 2.89543 38 4V21C38 22.1046 37.1046 23 36 23H4C2.89543 23 2 22.1046 2 21V4Z" fill="white"/>
<rect x="9" y="5" width="6" height="8" rx="2" fill="#3D4CF5" fill-opacity="0.3"/>
<rect x="17" y="5" width="6" height="8" rx="2" fill="#3D4CF5" fill-opacity="0.3"/>
<rect x="25" y="5" width="6" height="8" rx="2" fill="#3D4CF5" fill-opacity="0.3"/>
<rect x="17" y="17" width="6" height="3" rx="1.5" fill="#3D4CF5"/>
</g>
</g>
<defs>
<filter id="filter0_d_103_868" x="-2" y="0" width="44" height="29" filterUnits="userSpaceOnUse" color-interpolation-filters="sRGB">
<feFlood flood-opacity="0" result="BackgroundImageFix"/>
<feColorMatrix in="SourceAlpha" type="matrix" values="0 0 0 0 0 0 0 0 0 0 0 0 0 0 0 0 0 0 127 0" result="hardAlpha"/>
<feOffset dy="2"/>
<feGaussianBlur stdDeviation="2"/>
<feComposite in2="hardAlpha" operator="out"/>
<feColorMatrix type="matrix" values="0 0 0 0 0 0 0 0 0 0 0 0 0 0 0 0 0 0 0.25 0"/>
<feBlend mode="normal" in2="BackgroundImageFix" result="effect1_dropShadow_103_868"/>
<feBlend mode="normal" in="SourceGraphic" in2="effect1_dropShadow_103_868" result="shape"/>
</filter>
<clipPath id="clip0_103_868">
<rect width="40" height="40" rx="4" fill="white"/>
</clipPath>
</defs>
</svg>
