<svg width="40" height="40" viewBox="0 0 40 40" fill="none" xmlns="http://www.w3.org/2000/svg">
<g clip-path="url(#clip0_103_952)">
<rect width="40" height="40" rx="4" fill="#333333"/>
<g filter="url(#filter0_d_103_952)">
<rect x="2" y="13" width="36" height="14" rx="2" fill="white"/>
<rect x="4" y="16" width="4" height="4" rx="2" fill="#3D4CF5"/>
<rect x="9" y="17" width="2" height="2" rx="1" fill="#3D4CF5"/>
<rect x="4" y="22" width="7.33333" height="2" rx="1" fill="#C5C9FC"/>
<rect x="16.3333" y="16" width="4" height="4" rx="2" fill="#3D4CF5"/>
<rect x="21.3333" y="17" width="2" height="2" rx="1" fill="#3D4CF5"/>
<rect x="16.3333" y="22" width="7.33333" height="2" rx="1" fill="#C5C9FC"/>
<rect x="28.6667" y="16" width="4" height="4" rx="2" fill="#3D4CF5"/>
<rect x="33.6667" y="17" width="2" height="2" rx="1" fill="#3D4CF5"/>
<rect x="28.6667" y="22" width="7.33333" height="2" rx="1" fill="#C5C9FC"/>
</g>
</g>
<defs>
<filter id="filter0_d_103_952" x="-2" y="11" width="44" height="22" filterUnits="userSpaceOnUse" color-interpolation-filters="sRGB">
<feFlood flood-opacity="0" result="BackgroundImageFix"/>
<feColorMatrix in="SourceAlpha" type="matrix" values="0 0 0 0 0 0 0 0 0 0 0 0 0 0 0 0 0 0 127 0" result="hardAlpha"/>
<feOffset dy="2"/>
<feGaussianBlur stdDeviation="2"/>
<feComposite in2="hardAlpha" operator="out"/>
<feColorMatrix type="matrix" values="0 0 0 0 0 0 0 0 0 0 0 0 0 0 0 0 0 0 0.25 0"/>
<feBlend mode="normal" in2="BackgroundImageFix" result="effect1_dropShadow_103_952"/>
<feBlend mode="normal" in="SourceGraphic" in2="effect1_dropShadow_103_952" result="shape"/>
</filter>
<clipPath id="clip0_103_952">
<rect width="40" height="40" rx="4" fill="white"/>
</clipPath>
</defs>
</svg>
