<svg width="40" height="40" viewBox="0 0 40 40" fill="none" xmlns="http://www.w3.org/2000/svg">
<g clip-path="url(#clip0_103_890)">
<rect width="40" height="40" rx="4" fill="#F3F3F3"/>
<g filter="url(#filter0_d_103_890)">
<rect x="2" y="22" width="36" height="16" rx="2" fill="white"/>
<rect x="4" y="25" width="8" height="4" rx="2" fill="#3D4CF5"/>
<rect x="14" y="25" width="6" height="2" rx="1" fill="#3D4CF5"/>
<rect x="14" y="29" width="6" height="2" rx="1" fill="#C5C9FC"/>
<rect x="14" y="33" width="6" height="2" rx="1" fill="#C5C9FC"/>
<rect x="22" y="25" width="6" height="2" rx="1" fill="#3D4CF5"/>
<rect x="22" y="29" width="6" height="2" rx="1" fill="#C5C9FC"/>
<rect x="22" y="33" width="6" height="2" rx="1" fill="#C5C9FC"/>
<rect x="30" y="25" width="6" height="2" rx="1" fill="#3D4CF5"/>
<rect x="30" y="29" width="6" height="2" rx="1" fill="#C5C9FC"/>
<rect x="30" y="33" width="6" height="2" rx="1" fill="#C5C9FC"/>
</g>
</g>
<defs>
<filter id="filter0_d_103_890" x="-2" y="20" width="44" height="24" filterUnits="userSpaceOnUse" color-interpolation-filters="sRGB">
<feFlood flood-opacity="0" result="BackgroundImageFix"/>
<feColorMatrix in="SourceAlpha" type="matrix" values="0 0 0 0 0 0 0 0 0 0 0 0 0 0 0 0 0 0 127 0" result="hardAlpha"/>
<feOffset dy="2"/>
<feGaussianBlur stdDeviation="2"/>
<feComposite in2="hardAlpha" operator="out"/>
<feColorMatrix type="matrix" values="0 0 0 0 0 0 0 0 0 0 0 0 0 0 0 0 0 0 0.25 0"/>
<feBlend mode="normal" in2="BackgroundImageFix" result="effect1_dropShadow_103_890"/>
<feBlend mode="normal" in="SourceGraphic" in2="effect1_dropShadow_103_890" result="shape"/>
</filter>
<clipPath id="clip0_103_890">
<rect width="40" height="40" rx="4" fill="white"/>
</clipPath>
</defs>
</svg>
