<svg width="40" height="40" viewBox="0 0 40 40" fill="none" xmlns="http://www.w3.org/2000/svg">
<g clip-path="url(#clip0_103_725)">
<rect width="40" height="40" rx="4" fill="#F3F3F3"/>
<g filter="url(#filter0_d_103_725)">
<rect x="2" y="10" width="36" height="20" rx="2" fill="white"/>
<rect x="4" y="13" width="9.33333" height="14" rx="2" fill="#3D4CF5"/>
<rect x="5" y="14" width="4" height="4" rx="2" fill="white"/>
<rect x="5" y="21" width="7.33333" height="2" rx="1" fill="white"/>
<rect x="5" y="24" width="5" height="2" rx="1" fill="white"/>
<rect x="15.3333" y="13" width="9.33333" height="14" rx="2" fill="#3D4CF5"/>
<rect x="16.3333" y="14" width="4" height="4" rx="2" fill="white"/>
<rect x="16.3333" y="21" width="7.33333" height="2" rx="1" fill="white"/>
<rect x="16.3333" y="24" width="5" height="2" rx="1" fill="white"/>
<rect x="26.6667" y="13" width="9.33333" height="14" rx="2" fill="#3D4CF5"/>
<rect x="27.6667" y="14" width="4" height="4" rx="2" fill="white"/>
<rect x="27.6667" y="21" width="7.33333" height="2" rx="1" fill="white"/>
<rect x="27.6667" y="24" width="5" height="2" rx="1" fill="white"/>
</g>
</g>
<defs>
<filter id="filter0_d_103_725" x="-2" y="8" width="44" height="28" filterUnits="userSpaceOnUse" color-interpolation-filters="sRGB">
<feFlood flood-opacity="0" result="BackgroundImageFix"/>
<feColorMatrix in="SourceAlpha" type="matrix" values="0 0 0 0 0 0 0 0 0 0 0 0 0 0 0 0 0 0 127 0" result="hardAlpha"/>
<feOffset dy="2"/>
<feGaussianBlur stdDeviation="2"/>
<feComposite in2="hardAlpha" operator="out"/>
<feColorMatrix type="matrix" values="0 0 0 0 0 0 0 0 0 0 0 0 0 0 0 0 0 0 0.25 0"/>
<feBlend mode="normal" in2="BackgroundImageFix" result="effect1_dropShadow_103_725"/>
<feBlend mode="normal" in="SourceGraphic" in2="effect1_dropShadow_103_725" result="shape"/>
</filter>
<clipPath id="clip0_103_725">
<rect width="40" height="40" rx="4" fill="white"/>
</clipPath>
</defs>
</svg>
